<?xml version="1.0" encoding="UTF-8"?>
<svg id="b" data-name="Layer 2" xmlns="http://www.w3.org/2000/svg" xmlns:xlink="http://www.w3.org/1999/xlink" viewBox="0 0 469.2 78.38">
  <defs>
    <linearGradient id="d" x1="234.6" y1="78.38" x2="234.6" y2="0" gradientUnits="userSpaceOnUse">
      <stop offset=".72" stop-color="#364e54"/>
      <stop offset="1" stop-color="#364e54" stop-opacity="0"/>
    </linearGradient>
  </defs>
  <g id="c" data-name="Layer 3">
    <path d="m239.1,67.6c-2.49,1.23-3.28,6.65-3.52,9.31v1.1h-.08c-.01.25-.02.38-.02.38,0,0,0-.16,0-.38h-1.79c0,.19,0,.33,0,.33,0,0,0-.12-.01-.33h-.09v-1.25c-.25-2.69-1.04-7.99-3.49-9.2,1.26-1.35,2.93-2.5,3.49-5.6V0h2v61.94c.55,3.14,2.24,4.29,3.52,5.65ZM5.52,78h-1.93s0,0,0,0h-.07v-1.14c-.2-2.43-.93-7.98-3.52-9.26,1.27-1.36,2.96-2.49,3.52-5.6v-9.99s5.74-.81,9-3c4.89-3.29,6-8,6-8h200s.84-3.1,4-7c3.16-3.9,6-5,6-5V0h2v29.95s-2.37.64-6,5.05c-3.47,4.22-4.77,8-4.77,8H19.54s-2.25,5.24-5.02,7c-4.84,3.07-9,3.27-9,3.27v8.74c.56,3.07,2.23,4.19,3.49,5.54-3.31,1.65-3.42,10.45-3.42,10.45m458.03,0s-.1-8.81-3.42-10.45c1.26-1.35,2.92-2.47,3.49-5.54v-8.74s-4.16-.2-9-3.27c-2.77-1.76-5.02-7-5.02-7h-200.21s-1.3-3.79-4.77-8c-3.63-4.41-6-5.05-6-5.05V0h2v29s2.84,1.1,6,5c3.16,3.9,4,7,4,7h200s1.11,4.71,6,8c3.26,2.19,9,3,9,3v9.99c.56,3.11,2.24,4.25,3.52,5.6-2.59,1.28-3.32,6.84-3.52,9.26v1.14h-.07s0,0,0,0h-1.93" style="fill: url(#d); fill-rule: evenodd; stroke-width: 0px;"/>
  </g>
</svg>