<?xml version="1.0" encoding="UTF-8"?>
<svg id="b" data-name="Layer 2" xmlns="http://www.w3.org/2000/svg" xmlns:xlink="http://www.w3.org/1999/xlink" viewBox="0 0 894.64 71.13">
  <defs>
    <linearGradient id="d" x1="27.04" y1="35.54" x2="870.96" y2="35.54" gradientUnits="userSpaceOnUse">
      <stop offset="0" stop-color="#13388e"/>
      <stop offset=".16" stop-color="#21499e"/>
      <stop offset=".34" stop-color="#2c58ab"/>
      <stop offset=".5" stop-color="#305db0"/>
      <stop offset=".66" stop-color="#2c58ac"/>
      <stop offset=".83" stop-color="#224ba0"/>
      <stop offset="1" stop-color="#13388e"/>
    </linearGradient>
  </defs>
  <g id="c" data-name="Layer 3">
    <g>
      <path d="m755.95,5.7l-615.83,1.59c-4.28,5.2-16.2,6.02-23.26,6.02-3.23,0-5.44-.17-5.44-.17l-4.91,4.23h-45.88s-15.53,15.99-33.59,17.72c18.06,1.73,33.59,18.54,33.59,18.54h46.51l3.75,4.76s3.72.02,9.07.02c7.26,0,19.03.93,22.61,5.29l613,1.68c3.59-4.36,14.58-5.09,21.12-6.44,5.14,0,9.04-.03,9.04-.03l4.71-5.29h43.97s18.49-16.4,36.55-18.13c-18.06-1.73-36.55-18.13-36.55-18.13l-43.34.71-5.34-4.94s-2.21.17-5.44.17c-6.93-.39-17.57-.46-21.85-5.67l-2.5-1.94Z" style="fill: url(#d); opacity: .8; stroke-width: 0px;"/>
      <g style="opacity: .33;">
        <path d="m836.44,16.54l-.24-.13h-44.92l-8.86-10.63-.56.06c-.15.02-15.63,1.58-21.43-5.45L760.12,0H138.12l-.32.38c-5.8,7.03-21.27,5.47-21.43,5.45l-.56-.06-8.86,10.63h-44.92l-.24.13c-.18.1-18.51,16.28-36.12,17.96v2.11c17.62,1.69,35.94,17.86,36.12,17.96l.24.13h44.92l8.86,10.63.56-.06c.15-.02,15.63-1.58,21.43,5.45l.32.38h622l.32-.38c5.8-7.03,21.27-5.47,21.43-5.45l.56.06,8.86-10.63h44.92l.24-.13c.18-.1,18.51-16.28,36.12-17.96v-2.11c-17.62-1.69-35.94-17.86-36.12-17.96Zm-.78,36.05h-45.36l-8.77,10.53c-2.96-.24-16.3-.89-22.38,5.88H139.1c-6.08-6.76-19.42-6.11-22.38-5.88l-8.77-10.53h-45.36c-1.96-1.06-15.25-14.08-29.75-17.03,14.5-2.95,27.79-15.97,29.75-17.03h45.36l8.77-10.53c2.96.23,16.3.89,22.38-5.88h620.04c6.08,6.76,19.42,6.11,22.38,5.88l8.77,10.53h45.36c1.96,1.06,15.25,14.08,29.75,17.03-14.5,2.95-27.79,15.97-29.75,17.03Z" style="fill: #fff; stroke-width: 0px;"/>
      </g>
      <path d="m755.88,66.51l-613.89-1.2-.32-.39c-4.94-6-26.37-6.04-34.21-5.55h-47.5s-.18-.06-.18-.06c-.41-.15-41.67-20.93-59.78-22.67v-2.16c18.12-1.74,59.37-22.52,59.78-22.67l.18-.06h47.43c7.61.49,28.26.45,33.2-5.55l.32-.39h.51s615.54-1.31,615.54-1.31l.32.39c5.97,7.24,30.76,6.64,31.01,6.64h49.6s.17.05.17.05c.38.13,38.44,21.17,56.57,22.9v2.16c-18.12,1.73-58.29,23.71-58.7,23.86l-.18.07h-47.43c-.33-.02-26.17-1.67-32.12,5.55l-.32.39Zm-612.9-3.37l611.91,1.2c7.16-7.63,32.42-6.02,33.51-5.94h46.98c2.92-1.08,32.44-19.05,51.74-22.81-18.93-3.4-46.83-20.99-49.57-21.9h-49.23c-1.02.03-25.25.61-32.36-7.03l-614.06,1.31c-7.2,7.62-33.46,6.01-34.59,5.94h-46.98c-2.96,1.06-33.46,17.91-52.95,21.64,19.49,3.74,49.99,20.58,52.95,21.64h47.05c1.11-.07,28.37-1.68,35.6,5.94Z" style="fill: #fff; opacity: .15; stroke-width: 0px;"/>
    </g>
  </g>
</svg>